<svg width="26" height="19" viewBox="0 0 26 19" fill="none" xmlns="http://www.w3.org/2000/svg">
<path d="M23.76 1.35999H2.53002C1.86728 1.35999 1.33002 1.89726 1.33002 2.56V4.17999C1.33002 4.84273 1.86728 5.38 2.53002 5.38H23.76C24.4228 5.38 24.96 4.84273 24.96 4.17999V2.56C24.96 1.89726 24.4228 1.35999 23.76 1.35999Z" stroke="#F2A902" stroke-linecap="round" stroke-linejoin="round"/>
<path d="M23.21 5.38L21.45 16.38C21.4281 16.7225 21.2855 17.0461 21.0474 17.2933C20.8094 17.5405 20.4914 17.6952 20.15 17.73H6.15003C5.80757 17.6955 5.48832 17.5411 5.24863 17.2941C5.00894 17.0471 4.86422 16.7233 4.84003 16.38L3.09003 5.38" stroke="#F2A902" stroke-linecap="round" stroke-linejoin="round"/>
<path d="M8.73999 8.65997V14.39" stroke="#F2A902" stroke-linecap="round" stroke-linejoin="round"/>
<path d="M13.19 8.65997V14.39" stroke="#F2A902" stroke-linecap="round" stroke-linejoin="round"/>
<path d="M17.64 8.65997V14.39" stroke="#F2A902" stroke-linecap="round" stroke-linejoin="round"/>
</svg>
