<svg width="25" height="16" viewBox="0 0 25 16" fill="none" xmlns="http://www.w3.org/2000/svg">
<path d="M15.8 14.58H0.719971V11.86C0.937472 11.8956 1.16012 11.8835 1.37248 11.8245C1.58485 11.7655 1.78184 11.6611 1.94982 11.5184C2.11779 11.3757 2.25273 11.1982 2.34526 10.9982C2.4378 10.7981 2.48573 10.5804 2.48573 10.36C2.48573 10.1396 2.4378 9.92183 2.34526 9.7218C2.25273 9.52177 2.11779 9.34423 1.94982 9.20154C1.78184 9.05885 1.58485 8.95443 1.37248 8.89545C1.16012 8.83647 0.937472 8.82435 0.719971 8.85999V6.72998C1.06649 6.66033 1.3782 6.47284 1.60215 6.1994C1.8261 5.92596 1.94847 5.58343 1.94847 5.22998C1.94847 4.87653 1.8261 4.534 1.60215 4.26056C1.3782 3.98712 1.06649 3.79963 0.719971 3.72998V1.23999H15.8C15.8051 1.67428 15.9792 2.08948 16.2854 2.39752C16.5916 2.70557 17.0057 2.88224 17.44 2.89001C17.8768 2.88739 18.2949 2.71268 18.6038 2.40381C18.9127 2.09494 19.0873 1.67679 19.09 1.23999H24.5V14.67H19.09C19.0577 14.2559 18.8703 13.8692 18.5654 13.5871C18.2605 13.305 17.8604 13.1483 17.445 13.1483C17.0296 13.1483 16.6295 13.305 16.3245 13.5871C16.0196 13.8692 15.8323 14.2559 15.8 14.67V14.58Z" stroke="#F2A902" stroke-linecap="round" stroke-linejoin="round"/>
<path d="M8.8999 5.31V14.69" stroke="#F2A902" stroke-linecap="round" stroke-linejoin="round"/>
</svg>
