<svg width="42" height="42" viewBox="0 0 42 42" fill="none" xmlns="http://www.w3.org/2000/svg">
<path d="M39 0H3C1.34315 0 0 1.34315 0 3V39C0 40.6569 1.34315 42 3 42H39C40.6569 42 42 40.6569 42 39V3C42 1.34315 40.6569 0 39 0Z" fill="white"/>
<path d="M39 0.200012H3C1.4536 0.200012 0.200012 1.4536 0.200012 3V39C0.200012 40.5464 1.4536 41.8 3 41.8H39C40.5464 41.8 41.8 40.5464 41.8 39V3C41.8 1.4536 40.5464 0.200012 39 0.200012Z" stroke="#F2A902" stroke-width="0.4"/>
<path d="M21.72 32.47V21.35H24.79L25.19 17.51H21.72V15.6C21.72 14.6 21.82 14.06 23.25 14.06H25.17V10.23H22.1C18.41 10.23 17.1 12.09 17.1 15.23V17.53H14.8V21.37H17.1V32.49L21.72 32.47Z" fill="#3B5998"/>
</svg>
