<svg width="23" height="30" viewBox="0 0 23 30" fill="none" xmlns="http://www.w3.org/2000/svg">
<path d="M11.4998 19.61C10.4179 19.61 9.36526 19.2591 8.49978 18.61C3.84978 15.13 1.33978 11.04 1.25978 6.8C1.25846 6.11976 1.39116 5.44594 1.65026 4.81697C1.90937 4.188 2.28981 3.61623 2.76989 3.13429C3.24997 2.65236 3.82027 2.26967 4.44824 2.00813C5.0762 1.7466 5.74953 1.61131 6.42977 1.61C7.76849 1.60319 9.05684 2.11997 10.0198 3.05001L11.4998 4.48L12.9798 3.05001C13.9385 2.11966 15.2239 1.6026 16.5598 1.61C17.9345 1.61265 19.252 2.16066 20.2232 3.13368C21.1944 4.10671 21.7398 5.42526 21.7398 6.8C21.6498 11.05 19.1498 15.13 14.4898 18.62C13.6243 19.2691 12.5716 19.62 11.4898 19.62L11.4998 19.61Z" stroke="#F2A902" stroke-width="1.62" stroke-linecap="round" stroke-linejoin="round"/>
<path d="M12.5 27.78C12.5 28.3323 12.0523 28.78 11.5 28.78C10.9477 28.78 10.5 28.3323 10.5 27.78C10.5 27.2277 10.9477 26.78 11.5 26.78C12.0523 26.78 12.5 27.2277 12.5 27.78Z" fill="#F2A902" stroke="#F2A902"/>
</svg>
