<svg width="23" height="19" viewBox="0 0 23 19" fill="none" xmlns="http://www.w3.org/2000/svg">
<path d="M16.6601 18.48V16.58C16.6614 16.0802 16.5641 15.5849 16.3737 15.1227C16.1833 14.6605 15.9036 14.2405 15.5506 13.8865C15.1976 13.5326 14.7783 13.2518 14.3166 13.0602C13.8549 12.8686 13.3599 12.77 12.8601 12.77H5.24007C4.23132 12.77 3.26374 13.17 2.54951 13.8824C1.83529 14.5947 1.4327 15.5613 1.43005 16.57V18.47" stroke="#F2A902" stroke-linecap="round" stroke-linejoin="round"/>
<path d="M12.8501 5.14998C12.85 5.90395 12.6263 6.64101 12.2072 7.26777C11.7882 7.89454 11.1925 8.38284 10.4958 8.67091C9.79899 8.95899 9.0324 9.03388 8.29306 8.88606C7.55372 8.73824 6.87488 8.37437 6.34244 7.84053C5.81 7.30669 5.44791 6.62688 5.30203 5.88716C5.15615 5.14743 5.23305 4.38102 5.52295 3.68501C5.81285 2.989 6.30274 2.39469 6.9306 1.97725C7.55847 1.5598 8.29608 1.338 9.05005 1.33998C10.0588 1.34263 11.0253 1.7452 11.7377 2.45942C12.45 3.17365 12.8501 4.14123 12.8501 5.14998V5.14998Z" stroke="#F2A902" stroke-linecap="round" stroke-linejoin="round"/>
<path d="M22.3701 18.48V16.58C22.3684 15.7353 22.0869 14.9149 21.5694 14.2473C21.0519 13.5796 20.3277 13.1023 19.5101 12.89" stroke="#F2A902" stroke-linecap="round" stroke-linejoin="round"/>
<path d="M15.7101 1.46997C16.5288 1.68046 17.2543 2.15729 17.7723 2.82532C18.2903 3.49335 18.5714 4.31464 18.5714 5.15997C18.5714 6.00531 18.2903 6.82666 17.7723 7.49469C17.2543 8.16272 16.5288 8.63949 15.7101 8.84998" stroke="#F2A902" stroke-linecap="round" stroke-linejoin="round"/>
</svg>
