<svg width="42" height="42" viewBox="0 0 42 42" fill="none" xmlns="http://www.w3.org/2000/svg">
<path d="M39 0H3C1.34315 0 0 1.34315 0 3V39C0 40.6569 1.34315 42 3 42H39C40.6569 42 42 40.6569 42 39V3C42 1.34315 40.6569 0 39 0Z" fill="white"/>
<path d="M39 0.200012H3C1.4536 0.200012 0.200012 1.4536 0.200012 3V39C0.200012 40.5464 1.4536 41.8 3 41.8H39C40.5464 41.8 41.8 40.5464 41.8 39V3C41.8 1.4536 40.5464 0.200012 39 0.200012Z" stroke="#F2A902" stroke-width="0.4"/>
<path fill-rule="evenodd" clip-rule="evenodd" d="M15.46 21.35C15.4607 20.6192 15.5789 19.8933 15.81 19.2L11.92 16.2C11.1402 17.7924 10.7348 19.5419 10.7348 21.315C10.7348 23.0881 11.1402 24.8376 11.92 26.43L15.81 23.43C15.5797 22.7434 15.4615 22.0242 15.46 21.3" fill="#FFC901"/>
<path fill-rule="evenodd" clip-rule="evenodd" d="M22.3 14.52C23.8525 14.5217 25.357 15.0585 26.56 16.04L29.92 12.68C28.7837 11.6741 27.4603 10.9021 26.0254 10.408C24.5906 9.91387 23.0724 9.70728 21.5578 9.80015C20.0431 9.89302 18.5615 10.2835 17.1978 10.9492C15.8341 11.6149 14.6149 12.5429 13.61 13.68C12.9352 14.4396 12.3667 15.2874 11.92 16.2L15.81 19.2C16.2608 17.8357 17.1311 16.6486 18.2965 15.8082C19.462 14.9678 20.8631 14.517 22.3 14.52" fill="#EA4335"/>
<path fill-rule="evenodd" clip-rule="evenodd" d="M22.3 28.17C20.8628 28.1746 19.4609 27.7243 18.2952 26.8837C17.1294 26.043 16.2595 24.8551 15.81 23.49L11.92 26.49C12.8729 28.4275 14.3516 30.0579 16.1871 31.1949C18.0226 32.3319 20.1409 32.9297 22.3 32.92C25.0875 32.9501 27.7824 31.9207 29.84 30.04L26.14 27.19C24.9754 27.8768 23.6416 28.2232 22.29 28.19" fill="#34A853"/>
<path fill-rule="evenodd" clip-rule="evenodd" d="M33.34 21.35C33.3287 20.6427 33.2415 19.9387 33.08 19.25H22.3V23.71H28.5C28.3657 24.418 28.0868 25.0907 27.6807 25.686C27.2746 26.2814 26.7501 26.7865 26.14 27.17L29.84 30.02C30.9995 28.9017 31.9105 27.5516 32.5135 26.0578C33.1165 24.564 33.3981 22.9599 33.34 21.35" fill="#4285F4"/>
</svg>
