<svg width="23" height="32" viewBox="0 0 23 32" fill="none" xmlns="http://www.w3.org/2000/svg">
<path d="M5.49 22.68C4.90178 22.6839 4.3186 22.5715 3.77402 22.3492C3.22944 22.1268 2.73422 21.7989 2.31689 21.3843C1.89956 20.9698 1.56835 20.4768 1.34234 19.9337C1.11633 19.3906 0.999987 18.8082 1 18.22V10.78C1.00034 10.0952 1.15838 9.41968 1.46186 8.80579C1.76534 8.19189 2.20611 7.6561 2.75 7.23999L8.75 2.65002C9.52628 2.05959 10.4747 1.73987 11.45 1.73987C12.4253 1.73987 13.3737 2.05959 14.15 2.65002L20.15 7.23999C20.7101 7.64782 21.1684 8.17949 21.4893 8.79352C21.8102 9.40754 21.985 10.0874 22 10.78V18.22C21.9974 19.402 21.5266 20.5349 20.6908 21.3708C19.8549 22.2066 18.7221 22.6774 17.54 22.68H5.49Z" stroke="#F2A902" stroke-width="1.7" stroke-linecap="round" stroke-linejoin="round"/>
<path d="M12.5 29.78C12.5 30.3323 12.0523 30.78 11.5 30.78C10.9477 30.78 10.5 30.3323 10.5 29.78C10.5 29.2277 10.9477 28.78 11.5 28.78C12.0523 28.78 12.5 29.2277 12.5 29.78Z" fill="#F2A902" stroke="#F2A902"/>
</svg>
