<svg width="31" height="32" viewBox="0 0 31 32" fill="none" xmlns="http://www.w3.org/2000/svg">
<g filter="url(#filter0_d_9_9323)">
<path d="M9.49 22.68C8.90178 22.6839 8.3186 22.5715 7.77402 22.3492C7.22944 22.1268 6.73422 21.7989 6.31689 21.3843C5.89956 20.9698 5.56835 20.4768 5.34234 19.9337C5.11633 19.3906 4.99999 18.8082 5 18.22V10.78C5.00034 10.0952 5.15838 9.41968 5.46186 8.80579C5.76534 8.19189 6.20611 7.6561 6.75 7.23999L12.75 2.65002C13.5263 2.05959 14.4747 1.73987 15.45 1.73987C16.4253 1.73987 17.3737 2.05959 18.15 2.65002L24.15 7.23999C24.7101 7.64782 25.1684 8.17949 25.4893 8.79352C25.8102 9.40754 25.985 10.0874 26 10.78V18.22C25.9974 19.402 25.5266 20.5349 24.6908 21.3708C23.8549 22.2066 22.7221 22.6774 21.54 22.68H9.49Z" stroke="#D9D9D9" stroke-width="1.7" stroke-linecap="round" stroke-linejoin="round"/>
</g>
<defs>
<filter id="filter0_d_9_9323" x="0.149902" y="0.889862" width="30.7002" height="30.6402" filterUnits="userSpaceOnUse" color-interpolation-filters="sRGB">
<feFlood flood-opacity="0" result="BackgroundImageFix"/>
<feColorMatrix in="SourceAlpha" type="matrix" values="0 0 0 0 0 0 0 0 0 0 0 0 0 0 0 0 0 0 127 0" result="hardAlpha"/>
<feOffset dy="4"/>
<feGaussianBlur stdDeviation="2"/>
<feComposite in2="hardAlpha" operator="out"/>
<feColorMatrix type="matrix" values="0 0 0 0 0 0 0 0 0 0 0 0 0 0 0 0 0 0 0.25 0"/>
<feBlend mode="normal" in2="BackgroundImageFix" result="effect1_dropShadow_9_9323"/>
<feBlend mode="normal" in="SourceGraphic" in2="effect1_dropShadow_9_9323" result="shape"/>
</filter>
</defs>
</svg>
