<svg width="22" height="30" viewBox="0 0 22 30" fill="none" xmlns="http://www.w3.org/2000/svg">
<path d="M11.0767 1.00786C9.80232 0.956507 8.53037 1.15709 7.3337 1.59822C6.13704 2.03935 5.03919 2.71227 4.10309 3.57848C3.16698 4.44468 2.41102 5.48717 1.87854 6.64607C1.34605 7.80498 1.0475 9.05753 1 10.332C1 10.5091 1 10.7009 1 10.8779C1 21.7955 11.0767 29.1576 11.0767 29.1576C11.0767 29.1576 21.1533 21.5742 21.1533 10.8779C21.1475 9.57592 20.8854 8.28787 20.3818 7.08722C19.8781 5.88657 19.143 4.79685 18.2182 3.88032C17.2935 2.96379 16.1973 2.23841 14.9922 1.74554C13.7871 1.25267 12.4967 1.00204 11.1947 1.00786H11.0767Z" stroke="#F2A902" stroke-width="1.5" stroke-linecap="round" stroke-linejoin="round"/>
<path d="M7.24072 10.8484C7.24072 9.83108 7.64487 8.85536 8.36424 8.13599C9.08362 7.41661 10.0593 7.01245 11.0766 7.01245V7.01245C12.0928 7.01634 13.0662 7.42177 13.7848 8.14031C14.5033 8.85884 14.9087 9.83227 14.9126 10.8484V10.8484C14.9126 11.8658 14.5084 12.8414 13.789 13.5608C13.0697 14.2802 12.094 14.6843 11.0766 14.6843C10.0593 14.6843 9.08362 14.2802 8.36424 13.5608C7.64487 12.8414 7.24072 11.8658 7.24072 10.8484V10.8484Z" stroke="#F2A902" stroke-width="1.5" stroke-linecap="round" stroke-linejoin="round"/>
</svg>
