<svg width="25" height="24" viewBox="0 0 25 24" fill="none" xmlns="http://www.w3.org/2000/svg">
<path d="M7.20979 20.5C8.78484 21.5047 10.5862 22.0994 12.4498 22.23C15.2796 22.2277 17.995 21.1127 20.0099 19.1259C22.0249 17.139 23.1778 14.4395 23.2198 11.61C23.2198 8.76686 22.0904 6.04018 20.08 4.02979C18.0696 2.0194 15.3429 0.890015 12.4998 0.890015C9.65667 0.890015 6.92999 2.0194 4.9196 4.02979C2.90921 6.04018 1.77979 8.76686 1.77979 11.61V21.73C2.02302 21.2995 2.34876 20.9213 2.73836 20.6169C3.12796 20.3125 3.57376 20.0879 4.05026 19.956C4.52676 19.8241 5.02461 19.7875 5.51529 19.8482C6.00596 19.9089 6.47984 20.0659 6.90979 20.31L7.20979 20.5Z" stroke="#D9D9D9" stroke-width="1.62" stroke-linecap="round" stroke-linejoin="round"/>
<path d="M7.5 14C7.1 14 6.7 13.8 6.4 13.6C6.3 13.4 6.2 13.3 6.1 13.1C6 12.9 6 12.7 6 12.5C6 12.1 6.2 11.7 6.4 11.4C7 10.9 8 10.9 8.6 11.4C8.8 11.7 9 12.1 9 12.5C9 12.9 8.9 13.3 8.6 13.6C8.3 13.8 7.9 14 7.5 14Z" fill="#D9D9D9"/>
<path d="M12.6001 14C12.2001 14 11.9001 13.8 11.6001 13.6C11.4001 13.4 11.3001 13.3 11.2001 13.1C11.2001 12.9 11.1001 12.7 11.1001 12.5C11.1001 12.1 11.3001 11.7 11.5001 11.4C11.9001 11.1 12.4001 10.9 12.9001 11C13.0001 11 13.1001 11.1 13.2001 11.1C13.3001 11.1 13.4001 11.2 13.5001 11.2C13.6001 11.2 13.7001 11.3 13.7001 11.4C14.0001 11.7 14.1001 12.1 14.1001 12.5C14.1001 12.7 14.1001 12.9 14.0001 13.1C13.9001 13.3 13.8001 13.4 13.7001 13.6C13.4001 13.8 13.0001 14 12.6001 14Z" fill="#D9D9D9"/>
<path d="M17.6001 14C17.2001 14 16.8001 13.8 16.5001 13.6C16.2001 13.3 16.1001 12.9 16.1001 12.5C16.1001 12.1 16.3001 11.7 16.5001 11.4C17.1001 10.8 18.1001 10.8 18.6001 11.4C18.9001 11.7 19.0001 12.1 19.0001 12.5C19.0001 12.9 18.9001 13.3 18.6001 13.6C18.3001 13.8 18.0001 14 17.6001 14Z" fill="#D9D9D9"/>
</svg>
