<svg width="22" height="31" viewBox="0 0 22 31" fill="none" xmlns="http://www.w3.org/2000/svg">
<path d="M2 1.28998C6.8402 1.28998 11.4822 3.21278 14.9047 6.63531C18.3272 10.0579 20.25 14.6998 20.25 19.54" stroke="#F2A902" stroke-width="1.62" stroke-linecap="round" stroke-linejoin="round"/>
<path d="M3.23047 7.53003C6.09226 7.54062 8.83306 8.68552 10.852 10.7138C12.8709 12.7421 14.0031 15.4882 14.0005 18.35V18.35" stroke="#F2A902" stroke-width="1.62" stroke-linecap="round" stroke-linejoin="round"/>
<path d="M3.07996 20.73C4.38888 20.73 5.44996 19.6689 5.44996 18.36C5.44996 17.0511 4.38888 15.99 3.07996 15.99C1.77105 15.99 0.709961 17.0511 0.709961 18.36C0.709961 19.6689 1.77105 20.73 3.07996 20.73Z" fill="#F2A902"/>
<path d="M9.5 28.78C9.5 29.3323 9.05228 29.78 8.5 29.78C7.94772 29.78 7.5 29.3323 7.5 28.78C7.5 28.2277 7.94772 27.78 8.5 27.78C9.05228 27.78 9.5 28.2277 9.5 28.78Z" fill="#F2A902" stroke="#F2A902"/>
</svg>
