<svg width="43" height="43" viewBox="0 0 43 43" fill="none" xmlns="http://www.w3.org/2000/svg">
<g opacity="0.3" filter="url(#filter0_d_9_9568)">
<path d="M30 3.00001H13.3935L12.9994 3.00001C9.13342 3.00001 6 6.13402 6 10V26.6065V27.0004C6 30.8664 9.13399 34 13 34H30C33.866 34 37 30.8666 37 27.0006V26.6065V10.3935V9.99963C37 6.13363 33.866 3.00001 30 3.00001Z" fill="white"/>
</g>
<path d="M21.9 13.5255C21.4 13.5255 21 13.3255 20.6 13.0255C20.5 12.9255 20.4 12.8255 20.3 12.7255C20.2 12.6255 20.2 12.5255 20.1 12.4255C20 12.3255 20 12.2255 20 12.1255C20 12.0255 20 11.9255 20 11.8255C20 11.3255 20.2 10.9255 20.5 10.5255C20.9 10.1255 21.5 9.92548 22.1 10.0255C22.2 10.0255 22.3 10.1255 22.4 10.1255C22.5 10.1255 22.6 10.2255 22.7 10.3255C22.8 10.4255 22.9 10.4255 23 10.5255C23.3 10.8255 23.5 11.3255 23.5 11.8255C23.5 11.9255 23.5 12.0255 23.5 12.1255C23.5 12.2255 23.5 12.3255 23.4 12.4255C23.3 12.6255 23.2 12.8255 23 13.0255C22.8 13.2255 22.6 13.3255 22.4 13.4255C22.3 13.5255 22.1 13.5255 21.9 13.5255Z" fill="#FFC901"/>
<path d="M21.9001 20.5255C21.8001 20.5255 21.7001 20.5255 21.5001 20.5255C21.4001 20.5255 21.3001 20.4255 21.2001 20.4255C21.1001 20.4255 21.0001 20.3255 20.9001 20.2255C20.8001 20.1255 20.7001 20.1255 20.6001 20.0255C20.3001 19.7255 20.1001 19.2255 20.1001 18.7255C20.1001 18.6255 20.1001 18.5255 20.1001 18.3255C20.1001 18.2255 20.1001 18.1255 20.2001 18.0255C20.2001 17.9255 20.3001 17.8255 20.4001 17.7255C20.5001 17.6255 20.5001 17.5255 20.6001 17.4255C21.3001 16.7255 22.5001 16.7255 23.2001 17.4255C23.3001 17.5255 23.4001 17.6255 23.4001 17.7255C23.4001 17.8255 23.5001 17.9255 23.5001 18.0255C23.6001 18.1255 23.6001 18.2255 23.6001 18.3255C23.6001 18.4255 23.6001 18.5255 23.6001 18.7255C23.6001 19.2255 23.4001 19.6255 23.1001 20.0255C22.8001 20.3255 22.3001 20.5255 21.9001 20.5255Z" fill="#FFC901"/>
<path d="M21.9 27.5255C21.7 27.5255 21.4 27.5255 21.2 27.4255C21 27.3255 20.8 27.2255 20.6 27.0255C20.5 26.9255 20.4 26.8255 20.3 26.7255C20.2 26.6255 20.2 26.5255 20.1 26.4255C20 26.3255 20 26.2255 20 26.1255C20 26.0255 20 25.9255 20 25.7255C20 25.6255 20 25.5255 20 25.3255C20 25.2255 20 25.1255 20.1 25.0255C20.1 24.9255 20.2 24.8255 20.3 24.7255C20.4 24.6255 20.4 24.5255 20.5 24.4255C21.2 23.7255 22.4 23.7255 23.1 24.4255C23.2 24.5255 23.3 24.6255 23.3 24.7255C23.4 24.8255 23.5 24.9255 23.5 25.0255C23.6 25.1255 23.6 25.2255 23.6 25.3255C23.6 25.4255 23.6 25.5255 23.6 25.7255C23.6 25.8255 23.6 25.9255 23.6 26.1255C23.6 26.2255 23.6 26.3255 23.5 26.4255C23.5 26.5255 23.4 26.6255 23.3 26.7255C23.2 26.8255 23.2 26.9255 23.1 27.0255C23 27.1255 22.9 27.2255 22.8 27.2255C22.7 27.3255 22.6 27.3255 22.5 27.4255C22.4 27.4255 22.3 27.5255 22.2 27.5255C22.1 27.5255 22 27.5255 21.9 27.5255Z" fill="#FFC901"/>
<defs>
<filter id="filter0_d_9_9568" x="0" y="0" width="43" height="43" filterUnits="userSpaceOnUse" color-interpolation-filters="sRGB">
<feFlood flood-opacity="0" result="BackgroundImageFix"/>
<feColorMatrix in="SourceAlpha" type="matrix" values="0 0 0 0 0 0 0 0 0 0 0 0 0 0 0 0 0 0 127 0" result="hardAlpha"/>
<feOffset dy="3"/>
<feGaussianBlur stdDeviation="3"/>
<feColorMatrix type="matrix" values="0 0 0 0 0 0 0 0 0 0 0 0 0 0 0 0 0 0 0.16 0"/>
<feBlend mode="normal" in2="BackgroundImageFix" result="effect1_dropShadow_9_9568"/>
<feBlend mode="normal" in="SourceGraphic" in2="effect1_dropShadow_9_9568" result="shape"/>
</filter>
</defs>
</svg>
