<svg width="31" height="23" viewBox="0 0 31 23" fill="none" xmlns="http://www.w3.org/2000/svg">
<path d="M3.59666 1H26.981C27.3233 0.999994 27.6621 1.06759 27.9781 1.19901C28.2941 1.33042 28.581 1.52309 28.8224 1.76577C29.0637 2.00846 29.2546 2.29639 29.3843 2.61313C29.5139 2.92987 29.5796 3.26917 29.5777 3.61141V19.1911C29.5777 19.8798 29.3041 20.5403 28.8171 21.0272C28.3302 21.5142 27.6697 21.7877 26.981 21.7877H3.59666C2.90799 21.7877 2.24753 21.5142 1.76057 21.0272C1.27361 20.5403 1.00004 19.8798 1.00004 19.1911V3.61141C0.998097 3.26917 1.06382 2.92987 1.19344 2.61313C1.32307 2.29639 1.51402 2.00846 1.75533 1.76577C1.99665 1.52309 2.28356 1.33042 2.59956 1.19901C2.91556 1.06759 3.25442 0.999994 3.59666 1V1Z" stroke="#F2A902" stroke-width="1.5" stroke-linecap="round" stroke-linejoin="round"/>
<path d="M1 8.8046H29.5776" stroke="#F2A902" stroke-width="1.5" stroke-linecap="round" stroke-linejoin="round"/>
</svg>
