<svg width="19" height="31" viewBox="0 0 19 31" fill="none" xmlns="http://www.w3.org/2000/svg">
<path d="M9.50012 10.9C12.1953 10.9 14.3801 8.71517 14.3801 6.02002C14.3801 3.32487 12.1953 1.14001 9.50012 1.14001C6.80497 1.14001 4.62012 3.32487 4.62012 6.02002C4.62012 8.71517 6.80497 10.9 9.50012 10.9Z" stroke="#F2A902" stroke-width="1.62" stroke-linecap="round" stroke-linejoin="round"/>
<path d="M1.58008 22.07C1.58008 19.9695 2.41452 17.955 3.89981 16.4697C5.3851 14.9844 7.39958 14.15 9.50009 14.15C11.6006 14.15 13.6151 14.9844 15.1004 16.4697C16.5857 17.955 17.4201 19.9695 17.4201 22.07" stroke="#F2A902" stroke-width="1.62" stroke-linecap="round" stroke-linejoin="round"/>
<path d="M10.5 28.78C10.5 29.3323 10.0523 29.78 9.5 29.78C8.94772 29.78 8.5 29.3323 8.5 28.78C8.5 28.2277 8.94772 27.78 9.5 27.78C10.0523 27.78 10.5 28.2277 10.5 28.78Z" fill="#F2A902" stroke="#F2A902"/>
</svg>
