<svg width="26" height="24" viewBox="0 0 26 24" fill="none" xmlns="http://www.w3.org/2000/svg">
<path d="M14.4501 1.58995L15.8901 4.08C16.0661 4.38784 16.3316 4.63486 16.6513 4.78844C16.9709 4.94202 17.3297 4.9949 17.6801 4.93999L20.5201 4.51994C20.8264 4.47456 21.1392 4.51037 21.4273 4.6237C21.7155 4.73704 21.9689 4.92399 22.1622 5.16588C22.3555 5.40776 22.482 5.69607 22.529 6.00212C22.576 6.30817 22.5419 6.62121 22.4301 6.90996L21.3801 9.58995C21.2518 9.92114 21.2261 10.2833 21.3063 10.6293C21.3866 10.9752 21.5691 11.2891 21.8301 11.53L23.9301 13.53C24.1637 13.7393 24.3372 14.0073 24.4325 14.3061C24.5278 14.605 24.5415 14.924 24.4721 15.2299C24.4028 15.5359 24.2529 15.8177 24.038 16.0463C23.8232 16.2748 23.5511 16.4418 23.2501 16.53L20.5001 17.38C20.162 17.4878 19.8637 17.6937 19.6429 17.9715C19.4221 18.2492 19.2889 18.5863 19.2601 18.94L19.0501 21.81C19.0117 22.2771 18.7907 22.7103 18.435 23.0154C18.0793 23.3206 17.6176 23.4732 17.1501 23.44C16.8429 23.4132 16.5472 23.3101 16.2901 23.14L13.9101 21.5199C13.6161 21.317 13.2673 21.2083 12.9101 21.2083C12.5528 21.2083 12.204 21.317 11.9101 21.5199L9.53006 23.14C9.14079 23.4015 8.66404 23.4988 8.20342 23.4108C7.74279 23.3228 7.33551 23.0566 7.07006 22.67C6.89879 22.4134 6.79555 22.1174 6.77006 21.81L6.55007 18.94C6.52525 18.5851 6.39348 18.2461 6.17212 17.9676C5.95076 17.6891 5.65019 17.4842 5.31006 17.38L2.57006 16.53C2.27031 16.4404 1.99965 16.273 1.78566 16.0448C1.57167 15.8166 1.42199 15.5357 1.35186 15.2308C1.28174 14.9259 1.29368 14.6079 1.38646 14.3091C1.47925 14.0104 1.64956 13.7415 1.88006 13.53L3.99006 11.53C4.24934 11.2879 4.42992 10.9735 4.50838 10.6276C4.58683 10.2817 4.55955 9.92018 4.43006 9.58995L3.43006 6.90996C3.34441 6.69403 3.30235 6.46333 3.30631 6.23106C3.31027 5.9988 3.36018 5.76957 3.45314 5.55669C3.5461 5.3438 3.68028 5.15148 3.84795 4.99071C4.01563 4.82994 4.21346 4.70392 4.43006 4.61998C4.71598 4.5078 5.0265 4.47326 5.33006 4.51994L8.18006 4.93999C8.53043 4.9949 8.8892 4.94202 9.20886 4.78844C9.52852 4.63486 9.79398 4.38784 9.97006 4.08L11.4101 1.58995C11.5261 1.38819 11.6808 1.21134 11.8653 1.06944C12.0498 0.927546 12.2605 0.823423 12.4852 0.763047C12.71 0.702671 12.9445 0.687214 13.1753 0.717576C13.406 0.747938 13.6285 0.823523 13.8301 0.939988C14.0873 1.10211 14.3003 1.32539 14.4501 1.58995V1.58995Z" stroke="#F2A902" stroke-linecap="round" stroke-linejoin="round"/>
<path d="M16.8 8.75L9.23004 16.32" stroke="#F2A902" stroke-linecap="round" stroke-linejoin="round"/>
<path d="M15.3801 14.43L14.8101 15" stroke="#F2A902" stroke-linecap="round" stroke-linejoin="round"/>
<path d="M11.0801 10.13L10.5101 10.69" stroke="#F2A902" stroke-linecap="round" stroke-linejoin="round"/>
</svg>
