<svg width="27" height="27" viewBox="0 0 27 27" fill="none" xmlns="http://www.w3.org/2000/svg">
<path d="M17.38 13.54C17.38 14.2164 17.1795 14.8776 16.8037 15.4401C16.4279 16.0025 15.8937 16.4408 15.2688 16.6996C14.6439 16.9585 13.9562 17.0262 13.2928 16.8943C12.6294 16.7623 12.02 16.4366 11.5417 15.9583C11.0634 15.48 10.7377 14.8706 10.6058 14.2072C10.4738 13.5438 10.5415 12.8561 10.8004 12.2312C11.0592 11.6063 11.4976 11.0721 12.06 10.6964C12.6224 10.3206 13.2836 10.12 13.96 10.12C14.8671 10.12 15.737 10.4803 16.3784 11.1217C17.0197 11.7631 17.38 12.6329 17.38 13.54Z" stroke="#F2A902" stroke-linecap="round" stroke-linejoin="round"/>
<path d="M22.4 16.96C22.2471 17.3023 22.2005 17.6828 22.2665 18.0519C22.3325 18.4211 22.5079 18.7618 22.7701 19.03L22.84 19.1C23.2684 19.5283 23.509 20.1092 23.509 20.715C23.509 21.3207 23.2684 21.9017 22.84 22.33C22.4117 22.7583 21.8308 22.999 21.2251 22.999C20.6193 22.999 20.0384 22.7583 19.61 22.33L19.55 22.26C19.2818 22.0069 18.9459 21.8369 18.5831 21.7705C18.2203 21.7041 17.8461 21.7442 17.5056 21.8859C17.1651 22.0276 16.8729 22.2649 16.6643 22.5691C16.4557 22.8733 16.3396 23.2313 16.33 23.6V23.8C16.33 24.4047 16.0898 24.9846 15.6622 25.4122C15.2347 25.8398 14.6547 26.08 14.05 26.08C13.4454 26.08 12.8654 25.8398 12.4378 25.4122C12.0103 24.9846 11.7701 24.4047 11.7701 23.8V23.7C11.7381 23.333 11.6054 22.9819 11.3866 22.6855C11.1678 22.3891 10.8714 22.1589 10.53 22.0203C10.1887 21.8817 9.81569 21.8401 9.45219 21.9C9.0887 21.96 8.74882 22.1191 8.47005 22.36L8.40004 22.42C7.97172 22.8483 7.39079 23.0889 6.78505 23.0889C6.17931 23.0889 5.59837 22.8483 5.17004 22.42C4.74172 21.9917 4.50108 21.4107 4.50108 20.805C4.50108 20.1993 4.74172 19.6183 5.17004 19.19V19.19L5.24005 19.12C5.49438 18.8529 5.6655 18.5176 5.73253 18.155C5.79956 17.7923 5.7596 17.418 5.61754 17.0777C5.47547 16.7374 5.23744 16.4458 4.93246 16.2384C4.62749 16.0311 4.26876 15.9169 3.90004 15.91H3.70004C3.09535 15.91 2.51543 15.6698 2.08784 15.2422C1.66026 14.8146 1.42004 14.2347 1.42004 13.63C1.42004 13.0253 1.66026 12.4453 2.08784 12.0178C2.51543 11.5902 3.09535 11.35 3.70004 11.35H3.80005C4.17738 11.3425 4.5436 11.221 4.85059 11.0015C5.15757 10.7819 5.39096 10.4746 5.52005 10.12C5.67116 9.7756 5.71665 9.39408 5.65079 9.0238C5.58492 8.65353 5.41065 8.31114 5.15004 8.03998L5.08005 7.97998C4.86796 7.7679 4.69973 7.51612 4.58495 7.23901C4.47017 6.96191 4.41109 6.66492 4.41109 6.36499C4.41109 5.75925 4.65172 5.17832 5.08005 4.75C5.50837 4.32168 6.08931 4.08105 6.69505 4.08105C7.3008 4.08105 7.88172 4.32168 8.31004 4.75L8.38005 4.82001C8.64821 5.08211 8.98898 5.25751 9.35811 5.32349C9.72724 5.38947 10.1077 5.34298 10.45 5.19H10.54C10.8778 5.04677 11.1661 4.80731 11.3688 4.50146C11.5715 4.19562 11.6797 3.83689 11.68 3.46997V3.29999C11.68 2.69529 11.9203 2.11539 12.3478 1.68781C12.7754 1.26022 13.3554 1.01996 13.9601 1.01996C14.5647 1.01996 15.1447 1.26022 15.5723 1.68781C15.9998 2.11539 16.2401 2.69529 16.2401 3.29999V3.39996C16.2477 3.76951 16.3624 4.12893 16.5703 4.43457C16.7782 4.74021 17.0703 4.97897 17.4111 5.12189C17.752 5.2648 18.127 5.30569 18.4907 5.23969C18.8544 5.17368 19.1911 5.00359 19.4601 4.75L19.5201 4.67999C19.947 4.25167 20.5267 4.01052 21.1315 4.00958C21.7363 4.00864 22.3167 4.24799 22.745 4.67499C23.1734 5.10199 23.4145 5.68163 23.4155 6.28644C23.4164 6.89124 23.177 7.47164 22.75 7.89996L22.68 7.96997C22.4147 8.23822 22.2372 8.58083 22.1711 8.95233C22.105 9.32384 22.1535 9.70668 22.31 10.05V10.14C22.4493 10.4762 22.6831 10.7647 22.983 10.9706C23.283 11.1765 23.6363 11.2909 24 11.3H24.19C24.7947 11.3 25.3747 11.5402 25.8022 11.9678C26.2298 12.3954 26.47 12.9753 26.47 13.58C26.47 14.1847 26.2298 14.7646 25.8022 15.1922C25.3747 15.6198 24.7947 15.86 24.19 15.86H24.09C23.7234 15.8616 23.3653 15.9704 23.0597 16.1729C22.7541 16.3755 22.5143 16.663 22.37 17L22.4 16.96Z" stroke="#F2A902" stroke-linecap="round" stroke-linejoin="round"/>
</svg>
