<svg width="24" height="24" viewBox="0 0 24 24" fill="none" xmlns="http://www.w3.org/2000/svg">
<path d="M10.0001 2.39093C10.1292 1.9871 10.3833 1.63477 10.7257 1.38477C11.0681 1.13476 11.4811 1 11.9051 1C12.329 1 12.7421 1.13476 13.0845 1.38477C13.4269 1.63477 13.681 1.9871 13.8101 2.39093L15.0701 6.39093C15.1996 6.7954 15.4546 7.14816 15.7979 7.39807C16.1413 7.64798 16.5554 7.78207 16.9801 7.78094H21.1501C21.5682 7.78849 21.9734 7.9269 22.3087 8.1767C22.6441 8.4265 22.8927 8.77509 23.0196 9.17352C23.1465 9.57195 23.1454 10.0001 23.0163 10.3979C22.8873 10.7956 22.6368 11.1429 22.3001 11.3909L18.8701 13.9009C18.5308 14.1497 18.2786 14.499 18.1493 14.8994C18.02 15.2998 18.0203 15.7307 18.1501 16.1309L19.4501 20.1309C19.5787 20.5334 19.5765 20.9663 19.4439 21.3674C19.3113 21.7686 19.0551 22.1175 18.7119 22.364C18.3688 22.6105 17.9564 22.742 17.5339 22.7397C17.1114 22.7373 16.7005 22.6013 16.3601 22.351L13.0501 19.9009C12.7057 19.646 12.2886 19.5084 11.8601 19.5084C11.4316 19.5084 11.0145 19.646 10.6701 19.9009L7.36008 22.3909C7.0197 22.6413 6.60878 22.7773 6.18627 22.7797C5.76376 22.782 5.35137 22.6505 5.00823 22.404C4.66509 22.1575 4.40884 21.8086 4.27624 21.4074C4.14363 21.0062 4.14148 20.5734 4.27009 20.171L5.57009 16.171C5.69757 15.7721 5.69664 15.3433 5.56747 14.945C5.43829 14.5467 5.18738 14.199 4.85009 13.9509L1.43008 11.3909C1.08652 11.1422 0.830922 10.7907 0.700202 10.3873C0.569483 9.98379 0.570422 9.54922 0.702873 9.1463C0.835323 8.74338 1.09242 8.39297 1.43705 8.14575C1.78167 7.89853 2.19597 7.76728 2.62008 7.77094H6.79008C7.21354 7.77274 7.62666 7.64009 7.9699 7.39209C8.31315 7.14409 8.56881 6.79353 8.70008 6.39093L10.0001 2.39093Z" stroke="#F2A902" stroke-linecap="round" stroke-linejoin="round"/>
</svg>
