<svg width="42" height="42" viewBox="0 0 42 42" fill="none" xmlns="http://www.w3.org/2000/svg">
<path d="M39 0H3C1.34315 0 0 1.34315 0 3V39C0 40.6569 1.34315 42 3 42H39C40.6569 42 42 40.6569 42 39V3C42 1.34315 40.6569 0 39 0Z" fill="white"/>
<path d="M39 0.200012H3C1.4536 0.200012 0.200012 1.4536 0.200012 3V39C0.200012 40.5464 1.4536 41.8 3 41.8H39C40.5464 41.8 41.8 40.5464 41.8 39V3C41.8 1.4536 40.5464 0.200012 39 0.200012Z" stroke="#F2A902" stroke-width="0.4"/>
<path d="M33.06 14.4C32.2334 14.7548 31.3619 14.9937 30.47 15.11C31.4161 14.5542 32.1272 13.6724 32.47 12.63C31.5873 13.1473 30.6238 13.5124 29.62 13.71C29.0038 13.0552 28.2053 12.6005 27.3278 12.4047C26.4503 12.2088 25.5342 12.281 24.6982 12.6117C23.8622 12.9425 23.1447 13.5166 22.6386 14.2598C22.1326 15.0029 21.8613 15.8809 21.86 16.78C21.8596 17.1159 21.8931 17.4509 21.96 17.78C20.1747 17.6944 18.4277 17.2322 16.8335 16.4239C15.2394 15.6157 13.8342 14.4795 12.71 13.09C12.1322 14.0777 11.9532 15.2486 12.2097 16.3638C12.4662 17.4789 13.1387 18.4541 14.09 19.09C13.3896 19.0649 12.7047 18.8765 12.09 18.54V18.59C12.0939 19.6252 12.4539 20.6275 13.1094 21.4286C13.7649 22.2298 14.6761 22.7811 15.69 22.99C15.3065 23.0994 14.9086 23.15 14.51 23.14C14.225 23.1465 13.9401 23.123 13.66 23.07C13.9539 23.959 14.515 24.7357 15.2667 25.2941C16.0183 25.8524 16.9239 26.1653 17.86 26.19C16.2691 27.4327 14.3087 28.1084 12.29 28.11C11.9321 28.1119 11.5745 28.0885 11.22 28.04C13.1486 29.2772 15.3747 29.9723 17.6647 30.0523C19.9547 30.1323 22.2239 29.5942 24.2341 28.4944C26.2443 27.3947 27.9213 25.7739 29.0889 23.8024C30.2566 21.8309 30.8718 19.5813 30.87 17.29C30.87 17.09 30.87 16.9 30.87 16.71C31.7282 16.0726 32.4693 15.291 33.06 14.4V14.4Z" fill="#03A9F4"/>
</svg>
